<svg width="512" height="512" viewBox="135 105 300 300" fill="none" xmlns="http://www.w3.org/2000/svg">
  <defs>
    <linearGradient id="cube-grad1" x1="180" y1="210" x2="280" y2="320" gradientUnits="userSpaceOnUse">
      <stop offset="0%" stop-color="#6366F1"/>
      <stop offset="100%" stop-color="#A855F7"/>
    </linearGradient>
    <linearGradient id="cube-grad2" x1="290" y1="130" x2="390" y2="240" gradientUnits="userSpaceOnUse">
      <stop offset="0%" stop-color="#A855F7"/>
      <stop offset="100%" stop-color="#EC4899"/>
    </linearGradient>
    <linearGradient id="cube-grad3" x1="270" y1="270" x2="370" y2="380" gradientUnits="userSpaceOnUse">
      <stop offset="0%" stop-color="#EC4899"/>
      <stop offset="100%" stop-color="#3B82F6"/>
    </linearGradient>
    <filter id="cube-glow" x="-20%" y="-20%" width="140%" height="140%">
      <feGaussianBlur stdDeviation="12" result="blur" />
      <feComposite in="SourceGraphic" in2="blur" operator="over" />
    </filter>
  </defs>

  <g filter="url(#cube-glow)" stroke-width="6" stroke-linejoin="round" stroke-linecap="round">
    <!-- 立方体 A (左下) -->
    <!-- 顶面 -->
    <polygon points="180,240 230,210 280,240 230,270" fill="rgba(99, 102, 241, 0.08)" stroke="url(#cube-grad1)" />
    <!-- 左面 -->
    <polygon points="180,240 180,290 230,320 230,270" fill="rgba(99, 102, 241, 0.04)" stroke="url(#cube-grad1)" />
    <!-- 右面 -->
    <polygon points="230,270 230,320 280,290 280,240" fill="rgba(99, 102, 241, 0.06)" stroke="url(#cube-grad1)" />

    <!-- 立方体 B (右上) -->
    <!-- 顶面 -->
    <polygon points="290,160 340,130 390,160 340,190" fill="rgba(168, 85, 247, 0.08)" stroke="url(#cube-grad2)" />
    <!-- 左面 -->
    <polygon points="290,160 290,210 340,240 340,190" fill="rgba(168, 85, 247, 0.04)" stroke="url(#cube-grad2)" />
    <!-- 右面 -->
    <polygon points="340,190 340,240 390,210 390,160" fill="rgba(168, 85, 247, 0.06)" stroke="url(#cube-grad2)" />

    <!-- 立方体 C (右下) -->
    <!-- 顶面 -->
    <polygon points="270,300 320,270 370,300 320,330" fill="rgba(236, 72, 153, 0.08)" stroke="url(#cube-grad3)" />
    <!-- 左面 -->
    <polygon points="270,300 270,350 320,380 320,330" fill="rgba(236, 72, 153, 0.04)" stroke="url(#cube-grad3)" />
    <!-- 右面 -->
    <polygon points="320,330 320,380 370,350 370,300" fill="rgba(236, 72, 153, 0.06)" stroke="url(#cube-grad3)" />
  </g>
</svg>
